<?xml version="1.0" encoding="UTF-8" standalone="no"?>
<!DOCTYPE svg PUBLIC "-//W3C//DTD SVG 1.1//EN" "http://www.w3.org/Graphics/SVG/1.1/DTD/svg11.dtd">
<svg width="100%" height="100%" viewBox="0 0 200 50" version="1.1" xmlns="http://www.w3.org/2000/svg" xmlns:xlink="http://www.w3.org/1999/xlink" xml:space="preserve" xmlns:serif="http://www.serif.com/" style="fill-rule:evenodd;clip-rule:evenodd;stroke-miterlimit:22.926;">
    <g transform="matrix(0.0557487,0,0,0.0557487,30.3965,2.53858)">
        <g transform="matrix(4.16667,0,0,4.16667,0,-195.418)">
            <path d="M52.527,230.853L59.383,104.944L94.697,56.047L130.009,103.822L171.123,56.047L233.321,56.047L197.476,106.073L193.787,230.853L154.26,230.853L158.998,134.175L125.265,171.268L97.331,135.861L90.482,230.853L52.527,230.853ZM242.804,230.853L288.665,230.853L295.512,103.257L321.867,103.257L356.131,56.047L255.454,56.047L220.665,104.386L250.184,104.386L242.804,230.853ZM333.46,230.853L340.316,104.944L375.63,56.047L410.943,103.822L452.056,56.047L514.254,56.047L478.411,106.073L474.72,230.853L435.193,230.853L439.932,134.175L406.198,171.268L378.264,135.861L371.416,230.853L333.46,230.853Z" style="fill:rgb(74,63,53);"/>
        </g>
        <g transform="matrix(4.16667,0,0,4.16667,0,-781.2)">
            <path d="M531.091,229.219C539.641,229.219 546.571,222.289 546.571,213.74C546.571,205.199 539.641,198.269 531.091,198.269C522.542,198.269 515.612,205.199 515.612,213.74C515.612,222.289 522.542,229.219 531.091,229.219Z" style="fill:none;fill-rule:nonzero;stroke:rgb(74,63,53);stroke-width:3.5px;"/>
        </g>
        <g transform="matrix(4.16667,0,0,4.16667,0,-781.2)">
            <path d="M535.863,223.157L532.233,217.915L528.228,217.915L528.228,223.157L523.873,223.157L523.873,204.331L532.019,204.331C533.685,204.331 535.131,204.613 536.361,205.165C537.591,205.723 538.531,206.508 539.197,207.529C539.862,208.552 540.192,209.762 540.192,211.159C540.192,212.557 539.855,213.767 539.184,214.776C538.512,215.79 537.557,216.571 536.321,217.108L540.541,223.157L535.863,223.157ZM535.782,211.159C535.782,210.104 535.44,209.291 534.761,208.726C534.082,208.162 533.088,207.88 531.777,207.88L528.228,207.88L528.228,214.44L531.777,214.44C533.088,214.44 534.082,214.158 534.761,213.579C535.44,213.008 535.782,212.201 535.782,211.159" style="fill:rgb(74,63,53);fill-rule:nonzero;"/>
        </g>
    </g>
</svg>
